<?xml version="1.0" standalone="no"?>
<!DOCTYPE svg PUBLIC "-//W3C//DTD SVG 20010904//EN"
 "http://www.w3.org/TR/2001/REC-SVG-20010904/DTD/svg10.dtd">
<svg version="1.0" xmlns="http://www.w3.org/2000/svg"
 width="1024.000000pt" height="1024.000000pt" viewBox="0 0 1024.000000 1024.000000"
 preserveAspectRatio="xMidYMid meet">

<g transform="translate(0.000000,1024.000000) scale(0.100000,-0.100000)"
fill="#000000" stroke="none">
<path d="M5840 6655 c-57 -52 -108 -103 -114 -112 -7 -14 12 -37 105 -125 149
-140 179 -142 179 -8 l0 62 218 -4 c200 -4 223 -6 295 -30 297 -99 463 -396
387 -692 -38 -148 -116 -259 -245 -344 -89 -60 -174 -90 -292 -102 -109 -12
-333 -13 -351 -1 -8 4 -15 38 -19 80 -9 113 -19 112 -158 -11 -77 -69 -115
-109 -115 -124 0 -17 132 -150 212 -212 29 -23 58 1 58 47 0 21 3 52 6 69 l6
30 217 5 c184 4 227 8 291 26 170 50 314 155 409 297 71 105 102 208 109 352
6 144 -7 212 -65 332 -39 81 -58 108 -133 182 -72 72 -103 94 -182 132 -134
65 -193 76 -440 76 l-207 0 -5 43 c-3 23 -7 60 -8 82 -3 35 -6 40 -28 43 -21
2 -48 -17 -130 -93z"/>
<path d="M3866 6537 c-10 -7 -16 -22 -14 -33 3 -17 12 -19 83 -19 71 0 80 2
83 19 2 11 -4 26 -14 33 -23 17 -115 17 -138 0z"/>
<path d="M4126 6537 c-10 -7 -16 -22 -14 -33 3 -18 18 -19 520 -22 514 -2 517
-2 523 18 16 50 19 50 -514 50 -395 0 -501 -3 -515 -13z"/>
<path d="M3323 6363 c-18 -7 -16 -50 3 -57 9 -3 44 -6 79 -6 73 0 102 18 85
51 -9 16 -21 19 -83 18 -40 0 -78 -3 -84 -6z"/>
<path d="M3609 6354 c-9 -11 -10 -20 -2 -32 8 -14 28 -17 113 -17 85 0 105 3
113 17 8 12 7 21 -2 32 -11 13 -34 16 -111 16 -77 0 -100 -3 -111 -16z"/>
<path d="M4044 6356 c-3 -8 -4 -23 -2 -33 3 -17 28 -18 467 -18 416 0 465 2
474 16 6 9 7 24 4 33 -6 14 -50 16 -472 16 -396 0 -466 -2 -471 -14z"/>
<path d="M5158 6206 c-198 -53 -285 -305 -169 -488 34 -53 92 -99 154 -123 35
-13 84 -15 297 -13 l255 3 3 218 2 217 -269 0 -269 0 -48 -71 c-41 -59 -50
-68 -52 -49 -11 69 44 167 112 199 39 19 60 21 285 21 l242 0 -3 48 -3 47
-245 2 c-173 1 -259 -2 -292 -11z"/>
<path d="M3009 6174 c-9 -11 -10 -20 -2 -32 9 -15 34 -17 198 -17 164 0 189 2
198 17 8 12 7 21 -2 32 -20 24 -372 24 -392 0z"/>
<path d="M3499 6174 c-9 -11 -10 -20 -2 -32 9 -15 41 -17 303 -17 262 0 294 2
303 17 8 12 7 21 -2 32 -12 14 -51 16 -301 16 -250 0 -289 -2 -301 -16z"/>
<path d="M4209 6174 c-9 -11 -10 -20 -2 -32 14 -24 154 -30 172 -8 9 11 10 20
1 35 -9 18 -20 21 -84 21 -55 0 -77 -4 -87 -16z"/>
<path d="M6460 6125 c19 -19 36 -35 39 -35 3 0 -10 16 -29 35 -19 19 -36 35
-39 35 -3 0 10 -16 29 -35z"/>
<path d="M4072 5999 c-35 -14 -26 -51 16 -63 42 -12 96 3 101 29 7 38 -60 57
-117 34z"/>
<path d="M4300 6003 c-32 -12 -40 -24 -29 -44 9 -17 20 -19 87 -17 71 3 77 5
80 25 3 17 -3 26 -23 33 -28 11 -90 12 -115 3z"/>
<path d="M3347 5994 c-14 -14 -7 -43 12 -54 21 -11 134 -12 221 -2 50 6 55 9
55 32 l0 25 -141 3 c-77 1 -143 -1 -147 -4z"/>
<path d="M3737 5993 c-14 -13 -7 -43 13 -53 29 -15 192 -2 207 18 25 31 -3 42
-112 42 -56 0 -105 -3 -108 -7z"/>
<path d="M3609 5804 c-9 -11 -10 -20 -2 -32 9 -14 30 -17 138 -17 108 0 129 3
138 17 8 12 7 21 -2 32 -11 13 -36 16 -136 16 -100 0 -125 -3 -136 -16z"/>
<path d="M3991 5802 c-6 -11 -6 -24 0 -35 9 -15 28 -17 154 -17 79 0 150 3
159 6 9 3 16 16 16 29 0 13 -7 26 -16 29 -9 3 -80 6 -159 6 -128 0 -145 -2
-154 -18z"/>
<path d="M4410 5804 c-10 -11 -11 -20 -3 -32 9 -15 31 -17 159 -17 l149 0 0
30 0 30 -146 3 c-124 2 -148 0 -159 -14z"/>
<path d="M6469 5673 c-13 -16 -12 -17 4 -4 16 13 21 21 13 21 -2 0 -10 -8 -17
-17z"/>
<path d="M3880 5611 c-16 -31 12 -51 71 -51 59 0 89 13 89 39 0 25 -19 31 -90
31 -48 0 -61 -4 -70 -19z"/>
<path d="M4127 5624 c-14 -14 -7 -43 12 -54 28 -15 84 -12 107 4 15 12 17 18
8 33 -8 13 -26 19 -65 21 -30 2 -58 0 -62 -4z"/>
<path d="M4343 5614 c-3 -9 -2 -24 4 -33 9 -14 39 -16 224 -17 121 -1 222 2
232 8 11 6 17 18 15 31 -3 22 -5 22 -236 25 -209 2 -233 1 -239 -14z"/>
<path d="M6118 5583 c12 -2 32 -2 45 0 12 2 2 4 -23 4 -25 0 -35 -2 -22 -4z"/>
<path d="M3716 5434 c-21 -21 -20 -30 6 -48 30 -22 131 -22 152 0 9 8 16 19
16 24 0 26 -34 40 -95 40 -44 0 -68 -5 -79 -16z"/>
<path d="M3998 5439 c-24 -13 -23 -46 1 -59 12 -6 123 -10 291 -10 168 0 279
4 291 10 21 12 25 40 7 58 -15 15 -564 17 -590 1z"/>
<path d="M4712 5438 c-16 -16 -15 -43 2 -57 9 -8 97 -11 301 -9 262 3 289 5
299 21 8 12 8 22 0 35 -10 15 -38 17 -300 20 -217 2 -293 -1 -302 -10z"/>
<path d="M8229 4707 c-128 -85 -61 -277 97 -277 42 0 59 5 84 26 85 72 80 198
-12 254 -47 28 -125 27 -169 -3z m158 -33 c35 -22 57 -75 49 -117 -20 -106
-184 -120 -232 -19 -20 43 -11 83 27 121 43 43 105 49 156 15z"/>
<path d="M8300 4626 c0 -32 -3 -36 -25 -36 -31 0 -33 -17 -3 -22 16 -2 24 -12
28 -32 7 -41 30 -46 30 -7 0 30 10 37 48 32 6 -1 12 5 12 14 0 10 -10 15 -29
15 -26 0 -30 4 -33 32 -4 46 -28 49 -28 4z"/>
<path d="M1823 4619 c-18 -18 -19 -879 -1 -897 13 -13 85 -16 112 -6 14 5 16
29 16 164 l0 158 133 4 c111 3 139 7 178 26 98 48 155 132 166 244 12 130 -48
239 -160 289 -47 21 -69 24 -242 27 -145 3 -193 0 -202 -9z m382 -148 c100
-57 101 -201 3 -274 -23 -17 -47 -21 -143 -25 l-115 -5 0 160 c0 88 3 163 7
167 13 13 217 -6 248 -23z"/>
<path d="M2532 4618 c-17 -17 -17 -879 0 -896 13 -13 96 -16 116 -4 9 6 13 60
15 203 2 181 4 197 25 237 31 58 97 90 152 73 20 -6 47 -22 61 -37 24 -25 24
-28 27 -242 2 -134 7 -221 14 -229 15 -18 102 -17 117 1 9 11 11 79 9 253 -3
232 -4 239 -28 283 -69 123 -234 146 -346 48 l-34 -30 0 164 c0 114 -4 168
-12 176 -16 16 -100 16 -116 0z"/>
<path d="M6128 4621 c-87 -18 -118 -67 -118 -186 l0 -75 -44 0 c-52 0 -76 -19
-76 -58 0 -48 25 -72 76 -72 l44 0 0 -248 c0 -180 3 -251 12 -260 15 -15 82
-16 109 -2 18 10 19 24 19 260 l0 250 73 0 c43 0 78 5 85 12 7 7 12 30 12 53
0 23 -5 46 -12 53 -7 7 -42 12 -85 12 l-73 0 0 65 c0 61 2 65 25 71 14 3 40 3
59 0 18 -4 45 -2 60 4 22 8 26 15 26 52 0 24 -4 49 -9 56 -9 16 -130 24 -183
13z"/>
<path d="M6422 4618 c-19 -19 -17 -797 2 -842 22 -52 50 -66 132 -66 99 0 104
3 104 60 0 55 -11 67 -65 72 l-40 3 -3 384 c-2 293 -5 387 -15 393 -19 12
-102 9 -115 -4z"/>
<path d="M3345 4357 c-132 -44 -175 -95 -122 -145 30 -28 48 -28 92 2 100 68
245 27 245 -69 l0 -32 -107 -6 c-60 -3 -124 -11 -144 -17 -89 -25 -149 -98
-148 -180 0 -129 75 -202 209 -202 75 0 131 19 173 59 25 24 27 25 27 7 0 -38
28 -64 69 -64 20 0 42 5 49 12 20 20 17 468 -3 516 -36 84 -103 124 -220 129
-48 2 -96 -2 -120 -10z m215 -403 c0 -49 -3 -58 -31 -84 -68 -62 -182 -62
-214 0 -44 84 24 139 173 140 l72 0 0 -56z"/>
<path d="M4086 4358 c-22 -6 -55 -27 -77 -49 l-39 -39 0 34 c0 45 -18 58 -77
54 l-48 -3 -3 -309 c-2 -219 1 -313 9 -322 14 -17 100 -19 117 -2 8 8 12 66
12 192 0 100 5 197 10 217 5 19 24 48 41 65 26 25 40 30 97 34 l67 5 3 52 c3
44 0 53 -20 67 -25 18 -36 18 -92 4z"/>
<path d="M4538 4361 c-44 -14 -84 -42 -101 -70 l-16 -26 -1 28 c0 52 -16 67
-68 67 -27 0 -53 -5 -60 -12 -17 -17 -17 -609 0 -626 16 -16 100 -16 116 0 8
8 12 68 12 203 0 180 1 194 23 235 37 70 106 97 167 65 55 -28 60 -53 60 -279
0 -173 2 -207 16 -220 18 -19 94 -22 112 -4 8 8 12 67 12 197 0 207 7 244 49
285 38 36 108 47 147 22 47 -32 54 -67 54 -289 0 -144 3 -206 12 -215 16 -16
90 -15 112 1 17 12 18 31 14 243 -3 205 -6 234 -24 274 -41 89 -129 138 -228
126 -56 -6 -129 -46 -153 -82 l-16 -25 -19 30 c-11 17 -35 40 -54 51 -37 24
-124 34 -166 21z"/>
<path d="M5470 4356 c-60 -17 -100 -38 -129 -70 l-25 -26 20 -27 c37 -49 47
-50 115 -15 68 35 119 41 174 18 37 -16 50 -34 60 -87 l7 -36 -116 -5 c-99 -5
-123 -9 -170 -32 -84 -41 -124 -115 -112 -204 21 -156 224 -221 361 -116 l45
34 0 -28 c0 -15 5 -33 12 -40 16 -16 80 -16 96 0 18 18 17 477 -2 521 -19 46
-88 103 -141 116 -56 14 -137 13 -195 -3z m210 -402 c0 -52 -3 -60 -35 -90
-92 -86 -248 -28 -205 77 20 47 69 64 193 68 l47 1 0 -56z"/>
<path d="M7343 4343 c-7 -19 -10 -10 95 -352 45 -145 87 -268 94 -273 7 -4 40
-7 73 -6 l60 3 64 198 c36 108 68 197 71 197 4 0 21 -48 39 -107 54 -181 83
-267 94 -280 5 -8 33 -13 68 -13 73 0 61 -25 173 345 62 205 82 283 74 292
-17 21 -115 17 -127 -4 -5 -10 -32 -106 -61 -213 -29 -107 -56 -199 -60 -203
-4 -5 -11 4 -14 20 -21 89 -121 399 -130 405 -6 4 -32 8 -58 8 -35 0 -50 -5
-56 -17 -5 -10 -38 -111 -73 -225 -35 -115 -66 -205 -70 -200 -4 4 -24 70 -44
147 -55 210 -76 279 -89 287 -6 4 -35 8 -64 8 -40 0 -54 -4 -59 -17z"/>
<path d="M6955 4110 c-10 -11 -16 -22 -14 -24 2 -2 12 7 22 20 22 29 17 32 -8
4z"/>
<path d="M7038 4114 c12 -8 22 -23 23 -32 0 -11 2 -13 6 -4 6 14 -24 52 -41
52 -6 0 0 -7 12 -16z"/>
<path d="M6672 4050 c0 -19 2 -27 5 -17 2 9 2 25 0 35 -3 9 -5 1 -5 -18z"/>
<path d="M6940 4052 c0 -11 27 -42 37 -42 3 0 -2 10 -13 23 -10 12 -20 24 -21
26 -2 2 -3 -1 -3 -7z"/>
<path d="M6998 4003 c7 -3 16 -2 19 1 4 3 -2 6 -13 5 -11 0 -14 -3 -6 -6z"/>
<path d="M6799 3913 l-34 -38 38 34 c34 33 42 41 34 41 -2 0 -19 -17 -38 -37z"/>
<path d="M6875 3850 c-57 -58 -67 -72 -56 -82 11 -11 12 -10 6 1 -5 9 15 35
61 82 38 38 66 69 63 69 -2 0 -36 -31 -74 -70z"/>
<path d="M7160 3774 c-47 -34 -51 -39 -14 -21 17 9 36 23 43 31 17 21 13 19
-29 -10z"/>
<path d="M7058 3723 c7 -3 16 -2 19 1 4 3 -2 6 -13 5 -11 0 -14 -3 -6 -6z"/>
<path d="M6978 3713 c12 -2 30 -2 40 0 9 3 -1 5 -23 4 -22 0 -30 -2 -17 -4z"/>
</g>
</svg>
